<svg width="68" height="65" viewBox="0 0 68 65" fill="none" xmlns="http://www.w3.org/2000/svg">
<path d="M48.9893 34.2115H55.6164C56.5054 36.3914 58.7683 37.99 61.5161 37.99C64.9912 37.99 67.8199 35.4468 67.8199 32.3223C67.8199 29.1977 64.9912 26.6545 61.5161 26.6545C58.7683 26.6545 56.4245 28.2531 55.6164 30.433H48.9893V7.83479H55.6164C56.5054 10.0147 58.7683 11.6133 61.5161 11.6133C64.9912 11.6133 67.8199 9.07006 67.8199 5.94555C67.8199 2.82104 64.9912 0.277832 61.5161 0.277832C58.7683 0.277832 56.4245 1.87642 55.6164 4.05631H44.7868V30.3603H38.6446V24.8379C38.6446 19.6062 33.8763 15.3191 28.0574 15.3191C29.3505 13.7205 30.1587 11.7586 30.1587 9.65137C30.1587 4.49229 25.4713 0.277832 19.7332 0.277832C13.9951 0.277832 9.30766 4.49229 9.30766 9.65137C9.30766 11.7586 10.1158 13.7205 11.4089 15.3191C5.59004 15.3191 0.821777 19.6062 0.821777 24.8379V41.6231H9.22685V64.294H30.4011V41.6958H38.8062V34.1388H44.9484V60.4429H55.778C56.667 62.6228 58.9299 64.2213 61.6777 64.2213C65.1529 64.2213 67.9815 61.6781 67.9815 58.5536C67.9815 55.4291 65.1529 52.8859 61.6777 52.8859C58.9299 52.8859 56.5862 54.4845 55.778 56.6644H49.1509V34.2115H48.9893ZM61.5161 30.433C62.6475 30.433 63.6173 31.305 63.6173 32.3223C63.6173 33.3395 62.6475 34.2115 61.5161 34.2115C60.3846 34.2115 59.4148 33.3395 59.4148 32.3223C59.4148 31.305 60.3846 30.433 61.5161 30.433ZM61.5161 4.12897C62.6475 4.12897 63.6173 5.00093 63.6173 6.01821C63.6173 7.0355 62.6475 7.90746 61.5161 7.90746C60.3846 7.90746 59.4148 7.0355 59.4148 6.01821C59.4148 4.92827 60.3846 4.12897 61.5161 4.12897ZM13.4294 9.72403C13.4294 6.59952 16.258 4.05631 19.7332 4.05631C23.2084 4.05631 26.037 6.59952 26.037 9.72403C26.037 12.8485 23.2084 15.3917 19.7332 15.3917C16.1772 15.3917 13.4294 12.8485 13.4294 9.72403ZM34.442 37.9173H30.2395V27.8898H26.037V60.5155H21.7536V41.6958H17.5511V60.5155H13.2677V41.6958V27.8898H9.06521V37.9173H4.86268V24.9106C4.86268 21.7134 7.77212 19.1702 11.2473 19.1702H27.9766C31.5326 19.1702 34.3612 21.7861 34.3612 24.9106V37.9173H34.442ZM61.5161 56.737C62.6475 56.737 63.6173 57.609 63.6173 58.6263C63.6173 59.6436 62.6475 60.5155 61.5161 60.5155C60.3846 60.5155 59.4148 59.6436 59.4148 58.6263C59.4148 57.609 60.3846 56.737 61.5161 56.737Z" fill="black"/>
</svg>
