<svg width="148" height="149" viewBox="0 0 148 149" fill="none" xmlns="http://www.w3.org/2000/svg">
<path d="M0.839111 41.205V107.474C0.839111 110.162 2.48133 112.56 5.02677 113.941L69.8124 147.075C72.4399 148.383 75.6423 148.383 78.1877 147.075L142.973 113.941C145.601 112.633 147.161 110.162 147.161 107.474V41.205C147.161 38.5165 145.519 36.1186 142.973 34.738L78.2698 1.67626C75.6423 0.368329 72.4399 0.368329 69.8945 1.67626L5.02677 34.738C2.48133 36.1186 0.839111 38.5891 0.839111 41.205Z" fill="white"/>
<path d="M102.739 99.9171V66.0561H90.0117V99.9171H85.7419V73.613H73.0147V99.9171H68.7449V81.0973H56.0177V99.9171H51.748V86.765H39.0208V99.9171H34.751V103.696H107.009V99.9171H102.739ZM43.2905 99.9171V90.5435H47.5603V99.9171H43.2905ZM60.2875 99.9171V84.8758H64.5573V99.9171H60.2875ZM77.2845 99.9171V77.3188H81.5543V99.9171H77.2845ZM94.2815 99.9171V69.7619H98.5513V99.8444H94.2815V99.9171Z" fill="black"/>
<path d="M45.3433 75.4295C50.1879 75.4295 53.226 70.8517 50.9268 67.0732L59.9591 58.063C60.6981 58.3536 61.5192 58.499 62.3403 58.499C63.8183 58.499 65.3784 58.063 66.5279 57.1184L73.0968 60.3882C72.7684 62.1321 73.3432 64.0214 74.9033 65.3293C76.1349 66.4193 77.7772 67.0006 79.4194 67.0006C81.0616 67.0006 82.7038 66.4193 83.9355 65.3293C85.824 63.6581 86.3167 61.1149 85.2493 59.0803L93.4604 52.2499C94.3636 52.6859 95.3489 52.9039 96.4164 52.9039C98.0586 52.9039 99.7008 52.3226 100.932 51.2327C103.396 49.0528 103.396 45.4196 100.932 43.2397C98.4691 41.0598 94.3636 41.0598 91.9003 43.2397C90.0117 44.911 89.519 47.4542 90.5865 49.4887L82.3754 56.3191C80.0763 55.3018 77.2845 55.5198 75.2317 57.1184L68.6628 53.8485C68.9913 52.1046 68.4165 50.2154 66.8564 48.9074C64.3931 46.7276 60.2875 46.7276 57.8242 48.9074C55.7714 50.724 55.443 53.4852 56.7567 55.5924L47.8066 64.6027C45.5075 63.8034 42.7979 64.1667 40.9093 65.8379C38.446 68.0178 38.446 71.651 40.9093 73.8309C42.141 74.8482 43.7832 75.4295 45.3433 75.4295ZM94.8562 45.9283C95.2668 45.5649 95.7595 45.347 96.3343 45.347C96.909 45.347 97.4017 45.5649 97.8122 45.9283C98.2228 46.2916 98.4691 46.7276 98.4691 47.2362C98.4691 47.7448 98.2228 48.1808 97.8122 48.5441C97.4017 48.9074 96.909 49.1254 96.3343 49.1254C95.7595 49.1254 95.2668 48.9074 94.8562 48.5441C94.4457 48.1808 94.1994 47.7448 94.1994 47.2362C94.2815 46.7276 94.4457 46.2189 94.8562 45.9283ZM77.8593 60.0249C78.2698 59.6616 78.7625 59.4436 79.3373 59.4436C79.912 59.4436 80.4047 59.6616 80.8153 60.0249C81.2258 60.3882 81.4722 60.8242 81.4722 61.3328C81.4722 61.8415 81.2258 62.2775 80.8153 62.6408C80.4047 63.0041 79.912 63.2221 79.3373 63.2221C78.7625 63.2221 78.2698 63.0041 77.8593 62.6408C77.4487 62.2775 77.2024 61.8415 77.2024 61.3328C77.2845 60.8242 77.4487 60.3882 77.8593 60.0249ZM60.8623 51.5233C61.2728 51.16 61.7655 50.942 62.3403 50.942C62.9151 50.942 63.4077 51.16 63.8183 51.5233C64.2288 51.8866 64.4752 52.3226 64.4752 52.8313C64.4752 53.3399 64.2288 53.7759 63.8183 54.1392C63.4077 54.5025 62.9151 54.7205 62.3403 54.7205C61.7655 54.7205 61.2728 54.5025 60.8623 54.1392C60.4517 53.7759 60.2054 53.3399 60.2054 52.8313C60.2875 52.3953 60.4517 51.8866 60.8623 51.5233ZM43.8653 68.4538C44.2759 68.0905 44.7685 67.8725 45.3433 67.8725C45.9181 67.8725 46.4107 68.0905 46.8213 68.4538C47.2319 68.8171 47.4782 69.2531 47.4782 69.7617C47.4782 70.2704 47.2319 70.7064 46.8213 71.0697C46.4107 71.433 45.9181 71.651 45.3433 71.651C44.7685 71.651 44.2759 71.433 43.8653 71.0697C43.4547 70.7064 43.2084 70.2704 43.2084 69.7617C43.2905 69.3258 43.4547 68.8171 43.8653 68.4538Z" fill="black"/>
</svg>
